<!-- Generator: Adobe Illustrator 17.0.0, SVG Export Plug-In  -->
<svg version="1.1"
	 xmlns="http://www.w3.org/2000/svg" xmlns:xlink="http://www.w3.org/1999/xlink" xmlns:a="http://ns.adobe.com/AdobeSVGViewerExtensions/3.0/"
	 x="0px" y="0px" width="46px" height="11.077px" viewBox="0 0 46 11.077" enable-background="new 0 0 46 11.077"
	 xml:space="preserve">
<defs>
</defs>
<path fill="#FFFFFF" d="M40.774,0.167c-0.218-0.222-0.581-0.222-0.806,0c-0.218,0.215-0.218,0.572,0,0.786l4.089,4.026
	c0,0-38.702,0-42.075,0s-1.417,0-1.417,0C0.25,4.979,0,5.225,0,5.534s0.25,0.564,0.564,0.564h43.492l-4.089,4.018
	c-0.218,0.222-0.218,0.58,0,0.794c0.226,0.222,0.589,0.222,0.806,0l5.057-4.979c0.226-0.215,0.226-0.572,0-0.786L40.774,0.167z"/>
</svg>
